HIERARCHY
ROOT Hips
{
	OFFSET -0.148888 88.448799 3.733362
	CHANNELS 6 Xposition Yposition Zposition Zrotation Yrotation Xrotation 
	JOINT Spine
	{
		OFFSET 0.000000 8.814246 -2.080107
		CHANNELS 3 Zrotation Yrotation Xrotation
		JOINT Spine1
		{
			OFFSET 0.000000 8.844141 0.000000
			CHANNELS 3 Zrotation Yrotation Xrotation
			JOINT Spine2
			{
				OFFSET -0.000000 11.682268 -0.000000
				CHANNELS 3 Zrotation Yrotation Xrotation
				JOINT Spine3
				{
					OFFSET -0.000000 11.746700 -0.000000
					CHANNELS 3 Zrotation Yrotation Xrotation
					JOINT Neck
					{
						OFFSET 0.000000 17.658264 -0.000000
						CHANNELS 3 Zrotation Yrotation Xrotation
						JOINT Neck1
						{
							OFFSET 0.000000 5.101515 0.000000
							CHANNELS 3 Zrotation Yrotation Xrotation
							JOINT Head
							{
								OFFSET -0.000000 5.101515 -0.000000
								CHANNELS 3 Zrotation Yrotation Xrotation
								JOINT HeadEnd
								{
									OFFSET 0.000000 11.655085 -0.000000
									CHANNELS 3 Zrotation Yrotation Xrotation
									End Site
									{
										OFFSET 0.000000 0.000000 0.000000
									}
								}
							}
						}
					}
					JOINT RightShoulder
					{
						OFFSET -2.625389 11.175210 -0.000000
						CHANNELS 3 Zrotation Yrotation Xrotation
						JOINT RightArm
						{
							OFFSET -0.000000 10.434715 0.000000
							CHANNELS 3 Zrotation Yrotation Xrotation
							JOINT RightForeArm
							{
								OFFSET 0.000000 29.628420 0.000000
								CHANNELS 3 Zrotation Yrotation Xrotation
								JOINT RightHand
								{
									OFFSET 0.000000 22.857611 0.000000
									CHANNELS 3 Zrotation Yrotation Xrotation
									JOINT RightHandThumb1
									{
										OFFSET -2.867323 3.959563 2.944291
										CHANNELS 3 Zrotation Yrotation Xrotation
										JOINT RightHandThumb2
										{
											OFFSET -0.000000 3.350399 0.000000
											CHANNELS 3 Zrotation Yrotation Xrotation
											JOINT RightHandThumb3
											{
												OFFSET -0.000000 3.756509 0.000000
												CHANNELS 3 Zrotation Yrotation Xrotation
												JOINT RightHandThumb4
												{
													OFFSET 0.000000 3.147345 0.000000
													CHANNELS 3 Zrotation Yrotation Xrotation
													End Site
													{
														OFFSET 0.000000 0.000000 0.000000
													}
												}
											}
										}
									}
									JOINT RightHandIndex1
									{
										OFFSET -0.086752 10.030893 2.345280
										CHANNELS 3 Zrotation Yrotation Xrotation
										JOINT RightHandIndex2
										{
											OFFSET 0.000000 4.061090 -0.000000
											CHANNELS 3 Zrotation Yrotation Xrotation
											JOINT RightHandIndex3
											{
												OFFSET -0.000000 3.248873 0.000000
												CHANNELS 3 Zrotation Yrotation Xrotation
												JOINT RightHandIndex4
												{
													OFFSET 0.000000 2.639709 -0.000000
													CHANNELS 3 Zrotation Yrotation Xrotation
													End Site
													{
														OFFSET 0.000000 0.000000 0.000000
													}
												}
											}
										}
									}
									JOINT RightHandMiddle1
									{
										OFFSET 0.104102 9.502952 0.006768
										CHANNELS 3 Zrotation Yrotation Xrotation
										JOINT RightHandMiddle2
										{
											OFFSET 0.000000 4.568727 0.000000
											CHANNELS 3 Zrotation Yrotation Xrotation
											JOINT RightHandMiddle3
											{
												OFFSET 0.000000 3.654981 -0.000000
												CHANNELS 3 Zrotation Yrotation Xrotation
												JOINT RightHandMiddle4
												{
													OFFSET -0.000000 2.741236 0.000000
													CHANNELS 3 Zrotation Yrotation Xrotation
													End Site
													{
														OFFSET 0.000000 0.000000 0.000000
													}
												}
											}
										}
									}
									JOINT RightHandRing1
									{
										OFFSET 0.086752 8.921708 -2.267442
										CHANNELS 3 Zrotation Yrotation Xrotation
										JOINT RightHandRing2
										{
											OFFSET -0.000000 4.061090 0.000000
											CHANNELS 3 Zrotation Yrotation Xrotation
											JOINT RightHandRing3
											{
												OFFSET -0.000000 3.654981 0.000000
												CHANNELS 3 Zrotation Yrotation Xrotation
												JOINT RightHandRing4
												{
													OFFSET -0.000000 2.741236 0.000000
													CHANNELS 3 Zrotation Yrotation Xrotation
													End Site
													{
														OFFSET 0.000000 0.000000 0.000000
													}
												}
											}
										}
									}
									JOINT RightHandPinky1
									{
										OFFSET -0.173504 7.976997 -4.467199
										CHANNELS 3 Zrotation Yrotation Xrotation
										JOINT RightHandPinky2
										{
											OFFSET -0.000000 3.350399 0.000000
											CHANNELS 3 Zrotation Yrotation Xrotation
											JOINT RightHandPinky3
											{
												OFFSET -0.000000 2.842763 0.000000
												CHANNELS 3 Zrotation Yrotation Xrotation
												JOINT RightHandPinky4
												{
													OFFSET 0.000000 2.639709 -0.000000
													CHANNELS 3 Zrotation Yrotation Xrotation
													End Site
													{
														OFFSET 0.000000 0.000000 0.000000
													}
												}
											}
										}
									}
									JOINT RightForeArmEnd
									{
										OFFSET 0.000000 0.000000 0.000000
										CHANNELS 3 Zrotation Yrotation Xrotation
										End Site
										{
											OFFSET 0.000000 0.000000 0.000000
										}
									}
								}
								JOINT RightArmEnd
								{
									OFFSET 0.000000 0.000000 0.000000
									CHANNELS 3 Zrotation Yrotation Xrotation
									End Site
									{
										OFFSET 0.000000 0.000000 0.000000
									}
								}
							}
						}
					}
					JOINT LeftShoulder
					{
						OFFSET 2.625389 11.175210 0.000000
						CHANNELS 3 Zrotation Yrotation Xrotation
						JOINT LeftArm
						{
							OFFSET -0.000000 10.813635 -0.000000
							CHANNELS 3 Zrotation Yrotation Xrotation
							JOINT LeftForeArm
							{
								OFFSET 0.000000 28.724781 0.000000
								CHANNELS 3 Zrotation Yrotation Xrotation
								JOINT LeftHand
								{
									OFFSET 0.644384 25.716167 -0.328871
									CHANNELS 3 Zrotation Yrotation Xrotation
									JOINT LeftHandThumb1
									{
										OFFSET 2.867323 3.959563 2.944291
										CHANNELS 3 Zrotation Yrotation Xrotation
										JOINT LeftHandThumb2
										{
											OFFSET 0.000000 3.350399 -0.000000
											CHANNELS 3 Zrotation Yrotation Xrotation
											JOINT LeftHandThumb3
											{
												OFFSET 0.000000 3.756509 0.000000
												CHANNELS 3 Zrotation Yrotation Xrotation
												JOINT LeftHandThumb4
												{
													OFFSET -0.000000 3.100000 0.000000
													CHANNELS 3 Zrotation Yrotation Xrotation
													End Site
													{
														OFFSET 0.000000 0.000000 0.000000
													}
												}
											}
										}
									}
									JOINT LeftHandIndex1
									{
										OFFSET 0.086752 10.030893 2.345280
										CHANNELS 3 Zrotation Yrotation Xrotation
										JOINT LeftHandIndex2
										{
											OFFSET -0.000000 4.061090 0.000000
											CHANNELS 3 Zrotation Yrotation Xrotation
											JOINT LeftHandIndex3
											{
												OFFSET 0.000000 3.248873 0.000000
												CHANNELS 3 Zrotation Yrotation Xrotation
												JOINT LeftHandIndex4
												{
													OFFSET -0.000000 2.639709 -0.000000
													CHANNELS 3 Zrotation Yrotation Xrotation
													End Site
													{
														OFFSET 0.000000 0.000000 0.000000
													}
												}
											}
										}
									}
									JOINT LeftHandMiddle1
									{
										OFFSET -0.104102 9.502952 0.006768
										CHANNELS 3 Zrotation Yrotation Xrotation
										JOINT LeftHandMiddle2
										{
											OFFSET -0.000000 4.568727 -0.000000
											CHANNELS 3 Zrotation Yrotation Xrotation
											JOINT LeftHandMiddle3
											{
												OFFSET 0.000000 3.654981 0.000000
												CHANNELS 3 Zrotation Yrotation Xrotation
												JOINT LeftHandMiddle4
												{
													OFFSET 0.000000 2.741236 0.000000
													CHANNELS 3 Zrotation Yrotation Xrotation
													End Site
													{
														OFFSET 0.000000 0.000000 0.000000
													}
												}
											}
										}
									}
									JOINT LeftHandRing1
									{
										OFFSET -0.086752 8.921708 -2.267442
										CHANNELS 3 Zrotation Yrotation Xrotation
										JOINT LeftHandRing2
										{
											OFFSET 0.000000 4.061090 0.000000
											CHANNELS 3 Zrotation Yrotation Xrotation
											JOINT LeftHandRing3
											{
												OFFSET 0.000000 3.654981 0.000000
												CHANNELS 3 Zrotation Yrotation Xrotation
												JOINT LeftHandRing4
												{
													OFFSET -0.000000 2.741236 0.000000
													CHANNELS 3 Zrotation Yrotation Xrotation
													End Site
													{
														OFFSET 0.000000 0.000000 0.000000
													}
												}
											}
										}
									}
									JOINT LeftHandPinky1
									{
										OFFSET 0.173504 7.976997 -4.467199
										CHANNELS 3 Zrotation Yrotation Xrotation
										JOINT LeftHandPinky2
										{
											OFFSET -0.000000 3.350399 -0.000000
											CHANNELS 3 Zrotation Yrotation Xrotation
											JOINT LeftHandPinky3
											{
												OFFSET -0.000000 2.842763 0.000000
												CHANNELS 3 Zrotation Yrotation Xrotation
												JOINT LeftHandPinky4
												{
													OFFSET 0.000000 2.639709 0.000000
													CHANNELS 3 Zrotation Yrotation Xrotation
													End Site
													{
														OFFSET 0.000000 0.000000 0.000000
													}
												}
											}
										}
									}
									JOINT LeftForeArmEnd
									{
										OFFSET 0.000000 0.000000 0.000000
										CHANNELS 3 Zrotation Yrotation Xrotation
										End Site
										{
											OFFSET 0.000000 0.000000 0.000000
										}
									}
								}
								JOINT LeftArmEnd
								{
									OFFSET 0.000000 0.000000 0.000000
									CHANNELS 3 Zrotation Yrotation Xrotation
									End Site
									{
										OFFSET 0.000000 0.000000 0.000000
									}
								}
							}
						}
					}
				}
			}
		}
	}
	JOINT RightUpLeg
	{
		OFFSET -11.289943 -0.000000 -0.000000
		CHANNELS 3 Zrotation Yrotation Xrotation
		JOINT RightLeg
		{
			OFFSET 0.000000 -38.200325 0.000000
			CHANNELS 3 Zrotation Yrotation Xrotation
			JOINT RightFoot
			{
				OFFSET 0.000000 -39.900856 -0.000000
				CHANNELS 3 Zrotation Yrotation Xrotation
				JOINT RightToeBase
				{
					OFFSET 0.000000 0.000000 15.261641
					CHANNELS 3 Zrotation Yrotation Xrotation
					JOINT RightToeBaseEnd
					{
						OFFSET -0.000000 -0.000000 7.370709
						CHANNELS 3 Zrotation Yrotation Xrotation
						End Site
						{
							OFFSET 0.000000 0.000000 0.000000
						}
					}
				}
				JOINT RightLegEnd
				{
					OFFSET 0.000000 0.000000 0.000000
					CHANNELS 3 Zrotation Yrotation Xrotation
					End Site
					{
						OFFSET 0.000000 0.000000 0.000000
					}
				}
			}
			JOINT RightUpLegEnd
			{
				OFFSET 0.000000 0.000000 0.000000
				CHANNELS 3 Zrotation Yrotation Xrotation
				End Site
				{
					OFFSET 0.000000 0.000000 0.000000
				}
			}
		}
	}
	JOINT LeftUpLeg
	{
		OFFSET 11.315661 -0.000000 0.000000
		CHANNELS 3 Zrotation Yrotation Xrotation
		JOINT LeftLeg
		{
			OFFSET -0.000000 -38.200325 -0.000000
			CHANNELS 3 Zrotation Yrotation Xrotation
			JOINT LeftFoot
			{
				OFFSET 0.000000 -39.900856 -0.000000
				CHANNELS 3 Zrotation Yrotation Xrotation
				JOINT LeftToeBase
				{
					OFFSET 0.000000 0.000000 15.261641
					CHANNELS 3 Zrotation Yrotation Xrotation
					JOINT LeftToeBaseEnd
					{
						OFFSET 0.000000 -0.000000 7.539996
						CHANNELS 3 Zrotation Yrotation Xrotation
						End Site
						{
							OFFSET 0.000000 0.000000 0.000000
						}
					}
				}
				JOINT LeftLegEnd
				{
					OFFSET 0.000000 0.000000 0.000000
					CHANNELS 3 Zrotation Yrotation Xrotation
					End Site
					{
						OFFSET 0.000000 0.000000 0.000000
					}
				}
			}
			JOINT LeftUpLegEnd
			{
				OFFSET 0.000000 0.000000 0.000000
				CHANNELS 3 Zrotation Yrotation Xrotation
				End Site
				{
					OFFSET 0.000000 0.000000 0.000000
				}
			}
		}
	}
}
MOTION
Frames: 4
Frame Time: 0.016667
-0.148888 88.448799 3.733362 -1.071294 -0.165774 -8.795275 1.977979 -0.454280 7.201230 -1.571631 0.301330 1.174068 -0.240323 -1.599208 1.542572 -0.148160 -0.486667 0.007339 2.983474 2.070139 7.902873 0.724172 3.669763 -1.586659 -0.964287 -0.706352 -15.315372 0.000000 0.000000 0.000000 95.648170 -1.072138 10.953419 54.864632 -56.995480 11.180590 -0.098399 6.046414 28.930777 11.922408 10.375718 -3.733858 10.937046 -1.865515 39.738762 0.000000 0.000000 -26.639997 0.000000 0.000000 -18.499998 0.000000 0.000000 0.000000 14.917025 -0.000000 -4.046403 10.441919 0.000000 0.000000 10.441919 0.000000 0.000000 0.000000 0.000000 0.000000 13.016307 0.000000 -6.907734 9.111417 0.000000 0.000000 9.111417 0.000000 0.000000 0.000000 0.000000 0.000000 12.065241 0.000000 -8.902472 8.445668 0.000000 0.000000 8.445668 0.000000 0.000000 0.000000 0.000000 0.000000 10.481709 -0.000000 -12.391636 7.337195 0.000000 0.000000 7.337195 0.000000 0.000000 0.000000 0.000000 0.000000 0.000000 0.000000 0.000000 0.000000 0.000000 0.000000 -93.027763 0.366341 6.512349 -63.928600 41.960018 -1.341277 -0.560537 -1.312608 43.460899 -8.089611 -4.192083 -9.728065 -12.135554 1.950835 39.216904 0.000000 0.000000 -29.519997 0.000000 0.000000 -20.499998 0.000000 0.000000 0.000000 -21.031582 -0.000000 -5.234027 -14.722108 0.000000 0.000000 -14.722108 0.000000 0.000000 0.000000 0.000000 0.000000 -18.543806 0.000000 -7.204970 -12.980664 0.000000 0.000000 -12.980664 0.000000 0.000000 0.000000 0.000000 0.000000 -16.284643 0.000000 -9.077846 -11.399253 0.000000 0.000000 -11.399253 0.000000 0.000000 0.000000 0.000000 0.000000 -12.854185 -0.000000 -11.003169 -8.997928 0.000000 0.000000 -8.997928 0.000000 0.000000 0.000000 0.000000 0.000000 0.000000 0.000000 0.000000 0.000000 0.000000 0.000000 -6.742904 -12.334049 11.218077 -0.100748 -1.572749 3.630219 4.062670 -8.851838 22.145350 -1.149408 2.248072 -19.515566 0.000000 0.000000 0.000000 0.000000 0.000000 0.000000 0.000000 0.000000 0.000000 7.149309 -3.984354 4.916173 0.269636 1.266636 11.990840 -4.307302 12.293428 17.657980 1.482724 -1.272024 -21.386477 0.000000 0.000000 0.000000 0.000000 0.000000 0.000000 0.000000 0.000000 0.000000 
-0.068054 88.424629 3.480734 -1.334988 -0.513807 -9.424965 2.238749 -0.363355 6.297013 -0.716529 0.178678 3.661621 -0.018604 -0.842158 0.348559 -1.344557 -0.120017 2.798501 3.507411 0.663249 6.204047 1.214628 2.470746 -2.153576 -0.680969 -1.529591 -17.552908 0.000000 0.000000 0.000000 93.016731 -0.595850 10.879365 57.835819 -51.621433 10.982728 -0.537767 7.619170 30.012478 13.691507 7.186689 -1.703184 10.960117 -1.880686 39.757839 -0.000000 0.000030 -26.642166 0.000008 0.000045 -18.443020 0.000011 0.000001 -0.000032 15.113127 0.031265 -4.483269 10.193562 -0.028310 -0.046328 10.270085 -0.004838 -0.061663 -0.000027 0.000025 -0.000031 13.154142 0.011916 -6.473506 9.117526 -0.015320 -0.020772 9.179289 0.001769 -0.015989 0.000025 0.000039 0.000014 12.123796 -0.057081 -7.429745 8.416999 0.039950 -0.030597 8.345564 0.015222 -0.019154 0.000002 -0.000025 0.000004 10.960968 -0.050500 -9.851498 7.654651 0.130624 -0.146417 7.470544 0.061266 -0.134628 -0.000230 -0.000002 0.000004 0.000000 0.000000 0.000000 0.000000 0.000000 0.000000 -91.656128 0.360623 7.480492 -62.183434 40.276505 1.893707 0.267823 -2.599386 43.869091 -7.778572 -3.738307 -9.988194 -12.009748 1.912592 39.285862 0.000002 0.000034 -29.058912 -0.000065 -0.000027 -20.313444 -0.000996 -0.000005 0.001196 -20.304405 0.085762 -4.579281 -13.857405 0.068459 0.499597 -14.104815 0.093168 0.446857 0.000016 0.000733 0.000008 -18.181816 0.038959 -6.140736 -12.745628 0.015542 0.196679 -12.522923 0.027966 0.163587 0.000917 -0.000048 -0.000043 -15.526230 0.003957 -7.914169 -10.999765 -0.004875 -0.250579 -10.973825 -0.026032 -0.185782 -0.000560 0.000004 0.000010 -11.489099 -0.012104 -9.431704 -8.749039 -0.024836 -0.507384 -8.962743 -0.081158 -0.442505 -0.000135 -0.000007 -0.000038 0.000000 0.000000 0.000000 0.000000 0.000000 0.000000 -7.810399 -12.003942 12.022571 -0.222659 -1.169968 5.785384 4.080140 -9.613148 20.626556 -1.112348 1.611329 -17.768421 0.000000 0.000000 0.000000 0.000000 0.000000 0.000000 0.000000 0.000000 0.000000 8.124459 -0.818867 6.096128 0.222319 0.835094 14.003423 -4.313262 9.288568 18.237848 0.754491 -0.805469 -21.151852 0.000000 0.000000 0.000000 0.000000 0.000000 0.000000 0.000000 0.000000 0.000000 
-0.009646 88.406700 3.415087 -1.109070 -0.489117 -9.399884 2.092345 -0.324999 6.363565 -0.844721 0.213605 3.748362 0.067350 -0.898765 0.379123 -1.390185 -0.117337 2.885933 3.394596 0.535597 5.896566 1.258513 2.371215 -2.220843 -0.636602 -1.500863 -17.578304 0.000000 0.000000 0.000000 92.732742 -0.543984 11.011466 58.321331 -50.899963 10.821857 -0.551621 8.104956 30.186068 13.539421 6.760407 -1.628459 10.943945 -1.879500 39.764359 -0.000005 0.000041 -26.625467 0.000016 0.000038 -18.441023 0.000014 0.000005 -0.000043 15.349257 0.036319 -4.435089 10.328592 -0.016368 -0.064897 10.412247 0.006769 -0.078368 -0.000011 0.000037 -0.000025 13.395936 0.012738 -6.376328 9.253508 -0.011253 -0.029740 9.308150 0.006137 -0.019860 0.000025 0.000029 0.000003 12.299215 -0.059268 -7.327283 8.519138 0.031552 -0.024965 8.452106 0.008986 -0.012018 -0.000011 0.000146 -0.000005 11.161594 -0.056379 -9.731703 7.748298 0.107207 -0.115321 7.562699 0.040220 -0.102726 -0.000180 0.000005 0.000002 0.000000 0.000000 0.000000 0.000000 0.000000 0.000000 -91.301414 0.341549 7.461079 -62.705505 39.211006 1.609675 0.283576 -2.732297 43.986519 -7.570035 -3.991730 -10.070795 -11.963499 1.906291 39.302025 0.000010 0.000038 -28.942177 -0.000081 -0.000018 -20.232300 -0.000832 0.000003 0.001313 -20.305794 0.092103 -4.549332 -13.873663 0.068466 0.477099 -14.121320 0.093540 0.423805 0.000024 0.000700 0.000006 -18.264416 0.039715 -6.155600 -12.770426 0.015265 0.187469 -12.538348 0.028275 0.154561 0.001079 -0.000047 -0.000066 -15.680143 0.006843 -7.940763 -11.076119 -0.005749 -0.238250 -11.047577 -0.027074 -0.178396 -0.000673 0.000012 0.000009 -11.736887 -0.005318 -9.444102 -8.838342 -0.030356 -0.478505 -9.018757 -0.085635 -0.416432 -0.000091 0.000005 -0.000057 0.000000 0.000000 0.000000 0.000000 0.000000 0.000000 -8.180379 -12.201324 11.759449 -0.222820 -1.167470 6.032180 4.296663 -9.439710 20.520031 -1.147310 1.611683 -17.734158 0.000000 0.000000 0.000000 0.000000 0.000000 0.000000 0.000000 0.000000 0.000000 7.893952 -0.621867 6.161911 0.217959 0.812082 13.767500 -4.266249 9.236745 18.275221 0.754454 -0.813363 -21.117464 0.000000 0.000000 0.000000 0.000000 0.000000 0.000000 0.000000 0.000000 0.000000 
0.023196 88.404678 3.359832 -0.920044 -0.508127 -9.332298 1.958895 -0.281587 6.396698 -0.935814 0.235712 3.760007 0.076016 -0.870083 0.416182 -1.457607 -0.089826 2.996968 3.200060 0.461190 5.692534 1.294088 2.283113 -2.276029 -0.603717 -1.499792 -17.657240 0.000000 0.000000 0.000000 92.482536 -0.496742 11.083368 58.615391 -50.287262 10.772798 -0.565683 8.619469 30.526846 13.499292 6.478456 -1.332252 10.931079 -1.877536 39.772030 -0.000004 0.000039 -26.625908 0.000015 0.000039 -18.441139 0.000014 0.000004 -0.000041 15.638262 0.038634 -4.334118 10.515311 -0.007251 -0.080532 10.603210 0.015582 -0.093336 -0.000011 0.000036 -0.000025 13.655842 0.011594 -6.228325 9.444034 -0.007923 -0.037377 9.493753 0.009970 -0.024301 0.000024 0.000036 0.000004 12.462075 -0.060193 -7.179864 8.673492 0.025364 -0.020620 8.608532 0.004257 -0.005664 -0.000008 0.000287 -0.000005 11.300239 -0.058636 -9.559283 7.870106 0.089337 -0.093786 7.689855 0.024083 -0.078395 -0.000093 0.000005 -0.000003 0.000000 0.000000 0.000000 0.000000 0.000000 0.000000 -90.951797 0.320721 7.375746 -62.846622 38.358601 1.523926 0.266133 -2.872008 44.129784 -7.554925 -4.202285 -10.157537 -11.917978 1.900608 39.317413 0.000010 0.000038 -28.860058 -0.000086 -0.000019 -20.162149 -0.000720 0.000004 0.001557 -20.347847 0.093456 -4.522944 -13.960898 0.067002 0.449800 -14.201183 0.092148 0.399244 0.000021 0.000659 0.000007 -18.382065 0.038603 -6.136295 -12.862007 0.014307 0.176379 -12.637083 0.027974 0.144990 0.001190 -0.000047 -0.000074 -15.888417 0.011053 -7.900131 -11.249031 -0.005467 -0.228370 -11.214286 -0.027428 -0.172703 -0.000613 0.000012 0.000009 -12.047432 0.001665 -9.365485 -9.035089 -0.032293 -0.455139 -9.198837 -0.087395 -0.392801 -0.000072 0.000005 -0.000058 0.000000 0.000000 0.000000 0.000000 0.000000 0.000000 -8.489299 -12.320870 11.540137 -0.224011 -1.165677 6.216909 4.494741 -9.291455 20.435291 -1.177052 1.606311 -17.738623 0.000000 0.000000 0.000000 0.000000 0.000000 0.000000 0.000000 0.000000 0.000000 7.680728 -0.455481 6.184627 0.214527 0.801601 13.582191 -4.211041 9.259194 18.291380 0.765491 -0.813480 -21.084171 0.000000 0.000000 0.000000 0.000000 0.000000 0.000000 0.000000 0.000000 0.000000 
